# AST/ASF file generated using VICON BodyLanguage
# -----------------------------------------------
:version 1.10
:name VICON
:units
  mass 1.0
  length 0.45
  angle deg
:documentation
   .ast/.asf automatically generated from VICON data using
   VICON BodyBuilder and BodyLanguage model FoxedUp or BRILLIANT.MOD
:root
   order TX TY TZ RX RY RZ
   axis XYZ
   position 0 0 0  
   orientation 0 0 0 
:bonedata
  begin
     id 1 
     name lhipjoint
     direction 0.690799 -0.707083 0.151096 
     length 2.54797 
     axis 0 0 0  XYZ
  end
  begin
     id 2 
     name lfemur
     direction 0.34202 -0.939693 0  
     length 7.21646  
     axis 0 0 20  XYZ
    dof rx ry rz
    limits (-160.0 20.0)
           (-70.0 70.0)
           (-60.0 70.0)
  end
  begin
     id 3 
     name ltibia
     direction 0.34202 -0.939693 0   
     length 8.16759   
     axis 0 0 20   XYZ
    dof rx
    limits (-10.0 170.0)
  end
  begin
     id 4 
     name lfoot
     direction 0.0487203 -0.133858 0.989802   
     length 1.93375   
     axis -90 7.62852e-016 20   XYZ
    dof rx rz
    limits (-45.0 90.0)
           (-70.0 20.0)
  end
  begin
     id 5 
     name ltoes
     direction 1.53453e-011 -4.21783e-011 1   
     length 0.979747   
     axis -90 7.62852e-016 20   XYZ
    dof rx
    limits (-90.0 20.0)
  end
  begin
     id 6 
     name rhipjoint
     direction -0.694693 -0.703425 0.150315   
     length 2.56122  
     axis 0 0 0  XYZ 
  end
  begin
     id 7 
     name rfemur
     direction -0.34202 -0.939693 0   
     length 7.36786   
     axis 0 0 -20   XYZ
    dof rx ry rz
    limits (-160.0 20.0)
           (-70.0 70.0)
           (-70.0 60.0)
  end
  begin
     id 8 
     name rtibia
     direction -0.34202 -0.939693 0   
     length 8.07288   
     axis 0 0 -20   XYZ
    dof rx
    limits (-10.0 170.0)
 end
 begin
     id 9 
     name rfoot
     direction -0.0428397 -0.117701 0.992125   
     length 1.88295  
     axis -90 -7.62852e-016 -20   XYZ
    dof rx rz
    limits (-45.0 90.0)
           (-20.0 70.0)
  end
  begin
     id 10 
     name rtoes
     direction -1.53456e-011 -4.2187e-011 1   
     length 0.955578   
     axis -90 -7.62852e-016 -20   XYZ
    dof rx
    limits (-90.0 20.0)
  end
  begin
     id 11 
     name lowerback
     direction 0.0288145 0.999398 -0.0193241   
     length 1.92149   
     axis 0 0 0   XYZ
    dof rx ry rz
    limits (-20.0 45.0)
           (-30.0 30.0)
           (-30.0 30.0)
  end
  begin
     id 12 
     name upperback
     direction 0.0233784 0.998099 0.0570278   
     length 1.90435   
     axis 0 0 0   XYZ
    dof rx ry rz
    limits (-20.0 45.0)
           (-30.0 30.0)
           (-30.0 30.0)
  end
  begin
     id 13 
     name thorax
     direction 0.0096694 0.997833 0.0650817   
     length 1.9111   
     axis 0 0 0   XYZ
    dof rx ry rz
    limits (-20.0 45.0)
           (-30.0 30.0)
           (-30.0 30.0)
  end
  begin
     id 14 
     name lowerneck
     direction 0.00516803 0.999916 0.0118722   
     length 1.74664   
     axis 0 0 0   XYZ
    dof rx ry rz
    limits (-20.0 45.0)
           (-30.0 30.0)
           (-30.0 30.0)
  end
  begin
     id 15 
     name upperneck
     direction -0.0510851 0.996117 -0.071696   
     length 1.68498   
     axis 0 0 0   XYZ
    dof rx ry rz
    limits (-20.0 45.0)
           (-30.0 30.0)
           (-30.0 30.0)
  end
  begin
     id 16
     name head
     direction -0.019188 0.999436 -0.0275702  
     length 1.83483  
     axis 0 0 0   XYZ
    dof rx ry rz
    limits (-20.0 45.0)
           (-30.0 30.0)
           (-30.0 30.0)
  end
  begin
     id 17 
     name lclavicle
     direction 0.967006 0.248456 -0.0562957  
     length 3.39395  
     axis 0 0 0   XYZ
    dof ry rz
    limits (-20.0 10.0)
           (0.0 20.0)
  end
  begin
     id 18 
     name lhumerus
     direction 1 -4.48962e-011 -5.62711e-019   
     length 5.24318   
     axis 180 -30 -90   XYZ
    dof rx ry rz
    limits (-60.0 90.0)
           (-90.0 90.0)
           (-90.0 90.0)
  end
  begin
     id 19
     name lradius
     direction 1 -4.48966e-011 7.90625e-027   
     length 2.98999   
     axis 180 -30 -90   XYZ
    dof rx
    limits (-10.0 170.0)
  end
  begin
     id 20
     name lwrist
     direction 1 -4.48959e-011 1.61068e-026   
     length 1.49499   
     axis -9.31229e-015 90 90   XYZ
    dof ry
    limits (-180.0 0.0)
 end
  begin
     id 21 
     name lhand
     direction 1 -4.49017e-011 3.22136e-026   
     length 0.726745   
     axis -2.0555e-014 90 90   XYZ
    dof rx rz
    limits (-90.0 90.0)
           (-45.0 45.0)
  end
  begin
     id 22 
     name lfingers
     direction 1 -4.4898e-011 6.44272e-026   
     length 0.58592   
     axis -4.11101e-014 90 90   XYZ
    dof rx
    limits (0.0 90.0)
  end
  begin
     id 23
     name lthumb
     direction 0.707107 -6.34922e-011 0.707107   
     length 0.841268   
     axis -90 45 2.85299e-015   XYZ
    dof rx rz
    limits (-45.0 45.0)
           (-45.0 45.0)
  end
  begin
     id 24 
     name rclavicle
     direction -0.972232 0.230238 0.0419005   
     length 3.40416  
     axis 0 0 0   XYZ 
    dof ry rz
    limits (-10.0 20.0)
           (-20.0 0.0)
  end
  begin
     id 25 
     name rhumerus
     direction -1 -4.48976e-011 2.48487e-027  
     length 5.37045   
     axis 180 30 90   XYZ
    dof rx ry rz
    limits (-90.0 60.0)
           (-90.0 90.0)
           (-90.0 90.0)
  end
  begin
     id 26 
     name rradius
     direction -1 -4.48942e-011 7.87951e-027   
     length 2.92792   
     axis 180 30 90   XYZ
    dof rx
    limits (-10.0 170.0)
  end
  begin
     id 27 
     name rwrist
     direction -1 -4.48969e-011 1.61068e-026   
     length 1.46396   
     axis -9.31229e-015 -90 -90   XYZ
    dof ry
    limits (-180.0 0.0)
  end
  begin
     id 28
     name rhand
     direction -1 -4.49043e-011 3.22136e-026   
     length 0.784497   
     axis -2.0555e-014 -90 -90   XYZ
    dof rx rz
    limits (-90.0 90.0)
           (-45.0 45.0)
  end
  begin
     id 29
     name rfingers
     direction -1 -4.48823e-011 6.44272e-026   
     length 0.632482   
     axis -4.11101e-014 -90 -90   XYZ
    dof rx
    limits (0.0 90.0)
  end
  begin
     id 30
     name rthumb
     direction -0.707107 -6.34923e-011 0.707107   
     length 0.908121   
     axis -90 -45 -2.85299e-015   XYZ
    dof rx rz
    limits (-45.0 45.0)
           (-45.0 45.0)
  end
:hierarchy
  begin
    root lhipjoint rhipjoint lowerback
    lhipjoint lfemur
    lfemur ltibia
    ltibia lfoot
    lfoot ltoes
    rhipjoint rfemur
    rfemur rtibia
    rtibia rfoot
    rfoot rtoes
    lowerback upperback
    upperback thorax
    thorax lowerneck lclavicle rclavicle
    lowerneck upperneck
    upperneck head
    lclavicle lhumerus
    lhumerus lradius
    lradius lwrist
    lwrist lhand lthumb
    lhand lfingers
    rclavicle rhumerus
    rhumerus rradius
    rradius rwrist
    rwrist rhand rthumb
    rhand rfingers
  end

#!OML:ASF E:\Style6\Style6.ASF
:FULLY-SPECIFIED
:DEGREES
347
root 0.3056 17.7029 1.02253 5.03436 -7.65314 -0.934311
lowerback 2.45535 0.336348 -2.37229
upperback -1.83646 0.421365 2.18629
thorax -3.30381 0.291639 3.56694
lowerneck -0.602273 2.23991 3.32821
upperneck 13.183 4.17037 -11.0314
head 4.30673 1.67037 -3.78761
rclavicle -3.5657e-015 7.95139e-015
rhumerus -61.7276 43.0688 -108.414
rradius 93.746
rwrist 8.67516
rhand -0.726508 18.6566
rfingers 7.12502
rthumb 24.8943 -9.74228
lclavicle -3.5657e-015 7.95139e-015
lhumerus -77.7452 -62.5092 123.066
lradius 90.5198
lwrist 16.1122
lhand 14.6164 12.0166
lfingers 7.12502
lthumb 39.4905 37.3944
rfemur -17.3655 -2.36026 19.3827
rtibia 33.4978
rfoot -14.2156 -3.72077
rtoes -8.46492
lfemur -14.912 6.74077 -18.6802
ltibia 33.6324
lfoot -14.917 9.37043
ltoes -22.3573
348
root 0.301955 17.7045 1.01536 5.08765 -7.6655 -1.01017
lowerback 2.47773 0.331166 -2.39694
upperback -1.78399 0.412363 2.16886
thorax -3.26148 0.286053 3.56309
lowerneck -0.517473 2.27327 3.26253
upperneck 13.134 4.21523 -11.04
head 4.27999 1.69273 -3.77788
rclavicle 4.34841e-016 3.57812e-015
rhumerus -61.6854 43.1524 -108.462
rradius 93.7988
rwrist 8.80617
rhand -0.597893 18.6748
rfingers 7.12502
rthumb 25.0176 -9.70703
lclavicle 4.34841e-016 3.57812e-015
lhumerus -77.0594 -62.2408 122.408
lradius 90.6035
lwrist 15.9964
lhand 14.7065 12.3254
lfingers 7.12502
lthumb 39.5753 37.6782
rfemur -17.3973 -2.37723 19.4868
rtibia 33.4034
rfoot -14.132 -3.68902
rtoes -7.88889
lfemur -15.0477 6.76271 -18.5922
ltibia 33.7429
lfoot -14.8728 9.40692
ltoes -22.5045
349
root 0.298192 17.7052 1.008 5.14502 -7.6396 -1.08188
lowerback 2.52255 0.338548 -2.40998
upperback -1.74887 0.420191 2.14565
thorax -3.25097 0.289309 3.54579
lowerneck -0.360143 2.2733 3.13832
upperneck 12.9983 4.19948 -10.967
head 4.20775 1.69144 -3.73564
rclavicle 2.89853e-014 -1.19271e-015
rhumerus -61.6163 43.1137 -108.447
rradius 93.8481
rwrist 8.96678
rhand -0.419652 18.625
rfingers 7.12502
rthumb 25.1884 -9.73285
lclavicle 2.89853e-014 -1.19271e-015
lhumerus -76.4223 -62.0165 121.809
lradius 90.698
lwrist 15.8672
lhand 15.1989 12.6073
lfingers 7.12502
lthumb 40.0388 37.8216
rfemur -17.4266 -2.40456 19.5909
rtibia 33.3165
rfoot -14.0768 -3.60688
rtoes -7.34716
lfemur -15.1715 6.79627 -18.4978
ltibia 33.8149
lfoot -14.8822 9.34978
ltoes -22.572
350
root 0.294043 17.706 0.998799 5.15353 -7.60522 -1.10181
lowerback 2.66777 0.367134 -2.47062
upperback -1.71352 0.451535 2.07939
thorax -3.29886 0.305842 3.50921
lowerneck -0.272436 2.27153 3.09132
upperneck 12.8977 4.17612 -10.8497
head 4.15807 1.68904 -3.69236
rclavicle 1.37783e-014 1.31198e-014
rhumerus -61.5449 43.0619 -108.486
rradius 93.888
rwrist 9.08465
rhand -0.447179 18.5464
rfingers 7.12502
rthumb 25.162 -9.81522
lclavicle 1.37783e-014 1.31198e-014
lhumerus -75.874 -61.8568 121.247
lradius 90.861
lwrist 15.7999
lhand 15.8195 12.9915
lfingers 7.12502
lthumb 40.6225 38.0267
rfemur -17.4317 -2.42795 19.6413
rtibia 33.2458
rfoot -14.0427 -3.64869
rtoes -7.96353
lfemur -15.237 6.79088 -18.4537
ltibia 33.8448
lfoot -14.8523 9.30538
ltoes -22.7651
351
root 0.289899 17.7084 0.989884 5.18275 -7.57883 -1.09542
lowerback 2.78093 0.409998 -2.56261
upperback -1.67649 0.50067 2.00381
thorax -3.32856 0.331522 3.4796
lowerneck -0.281437 2.25262 3.10678
upperneck 12.9085 4.14613 -10.8093
head 4.16021 1.67642 -3.68354
rclavicle -5.64051e-015 1.59028e-015
rhumerus -61.3833 43.0136 -108.451
rradius 93.8739
rwrist 9.19344
rhand -0.429493 18.5569
rfingers 7.12502
rthumb 25.1789 -9.80231
lclavicle -5.64051e-015 1.59028e-015
lhumerus -75.4282 -61.7458 120.766
lradius 91.0518
lwrist 15.8082
lhand 16.2203 13.4016
lfingers 7.12502
lthumb 40.999 38.3183
rfemur -17.4602 -2.44501 19.6651
rtibia 33.1725
rfoot -13.9249 -3.78183
rtoes -9.01792
lfemur -15.3141 6.748 -18.4463
ltibia 33.864
lfoot -14.7784 9.35139
ltoes -23.1214
352
root 0.285672 17.7108 0.982742 5.25031 -7.5566 -1.19869
lowerback 2.82477 0.462457 -2.54221
upperback -1.64314 0.569344 1.95688
thorax -3.32345 0.364194 3.4152
lowerneck -0.301014 2.21767 3.08262
upperneck 13.0194 4.10299 -10.7528
head 4.1925 1.65292 -3.66414
rclavicle -1.47846e-015 -7.7526e-015
rhumerus -61.2489 42.9735 -108.407
rradius 93.861
rwrist 9.23901
rhand -0.372953 18.5246
rfingers 7.12502
rthumb 25.2331 -9.82697
lclavicle -1.47846e-015 -7.7526e-015
lhumerus -75.0204 -61.6102 120.319
lradius 91.1821
lwrist 15.6677
lhand 16.472 13.6225
lfingers 7.12502
lthumb 41.2354 38.4637
rfemur -17.5036 -2.43192 19.8023
rtibia 33.1119
rfoot -13.8843 -3.83197
rtoes -8.9542
lfemur -15.4007 6.70432 -18.327
ltibia 33.8649
lfoot -14.7352 9.40981
ltoes -23.2978
